<mxGraphModel dx="0" dy="0" grid="1" gridSize="10" guides="1" tooltips="1" connect="1" arrows="1" fold="1" page="0" pageScale="1" background="none" math="0" shadow="0">
  <root>
    <mxCell id="0" />
    <mxCell id="1" parent="0" />
    <mxCell id="node24" parent="1" vertex="1" value="&lt;p style=&quot;margin:0px;margin-top:4px;text-align:center;&quot;&gt;&lt;i&gt;&amp;lt;&amp;lt;interface&amp;gt;&amp;gt;&lt;/i&gt;&lt;br/&gt;&lt;b&gt;Action&lt;/b&gt;&lt;/p&gt;&lt;hr size=&quot;1&quot;/&gt;&lt;p style=&quot;margin:0 0 0 4px;line-height:1.6;&quot;&gt;+ executeAction(EventScheduler): void&lt;/p&gt;" style="verticalAlign=top;align=left;overflow=fill;fontSize=14;fontFamily=Helvetica;html=1;rounded=0;shadow=0;comic=0;labelBackgroundColor=none;strokeWidth=1;">
      <mxGeometry x="1963" y="1296" width="271" height="66" as="geometry" />
    </mxCell>
    <mxCell id="node20" parent="1" vertex="1" value="&lt;p style=&quot;margin:0px;margin-top:4px;text-align:center;&quot;&gt;&lt;b&gt;ActionEntity&lt;/b&gt;&lt;/p&gt;&lt;hr size=&quot;1&quot;/&gt;&lt;p style=&quot;margin:0 0 0 4px;line-height:1.6;&quot;&gt;- actionPeriod: int&lt;/p&gt;&lt;hr size=&quot;1&quot;/&gt;&lt;p style=&quot;margin:0 0 0 4px;line-height:1.6;&quot;&gt;+ createActivityAction(WorldModel, ImageStore): Activity&lt;br/&gt;~ executeActivity(WorldModel, ImageStore, EventScheduler): void&lt;br/&gt;+ scheduleActions(EventScheduler, WorldModel, ImageStore): void&lt;br/&gt;+ getActionPeriod(): int&lt;/p&gt;" style="verticalAlign=top;align=left;overflow=fill;fontSize=14;fontFamily=Helvetica;html=1;rounded=0;shadow=0;comic=0;labelBackgroundColor=none;strokeWidth=1;">
      <mxGeometry x="849" y="504" width="441" height="143" as="geometry" />
    </mxCell>
    <mxCell id="node10" parent="1" vertex="1" value="&lt;p style=&quot;margin:0px;margin-top:4px;text-align:center;&quot;&gt;&lt;b&gt;Activity&lt;/b&gt;&lt;/p&gt;&lt;hr size=&quot;1&quot;/&gt;&lt;p style=&quot;margin:0 0 0 4px;line-height:1.6;&quot;&gt;- entity: ActionEntity&lt;br/&gt;- world: WorldModel&lt;br/&gt;- imageStore: ImageStore&lt;/p&gt;&lt;hr size=&quot;1&quot;/&gt;&lt;p style=&quot;margin:0 0 0 4px;line-height:1.6;&quot;&gt;+ executeAction(EventScheduler): void&lt;/p&gt;" style="verticalAlign=top;align=left;overflow=fill;fontSize=14;fontFamily=Helvetica;html=1;rounded=0;shadow=0;comic=0;labelBackgroundColor=none;strokeWidth=1;">
      <mxGeometry x="2108" y="1399" width="271" height="131" as="geometry" />
    </mxCell>
    <mxCell id="node3" parent="1" vertex="1" value="&lt;p style=&quot;margin:0px;margin-top:4px;text-align:center;&quot;&gt;&lt;b&gt;Animated&lt;/b&gt;&lt;/p&gt;&lt;hr size=&quot;1&quot;/&gt;&lt;p style=&quot;margin:0 0 0 4px;line-height:1.6;&quot;&gt;- animationPeriod: int&lt;/p&gt;&lt;hr size=&quot;1&quot;/&gt;&lt;p style=&quot;margin:0 0 0 4px;line-height:1.6;&quot;&gt;~ scheduleActions(EventScheduler, WorldModel, ImageStore): void&lt;br/&gt;+ getAnimationPeriod(): int&lt;br/&gt;+ createAnimationAction(int): Animation&lt;br/&gt;+ nextImage(): void&lt;/p&gt;" style="verticalAlign=top;align=left;overflow=fill;fontSize=14;fontFamily=Helvetica;html=1;rounded=0;shadow=0;comic=0;labelBackgroundColor=none;strokeWidth=1;">
      <mxGeometry x="1149" y="311" width="441" height="143" as="geometry" />
    </mxCell>
    <mxCell id="node14" parent="1" vertex="1" value="&lt;p style=&quot;margin:0px;margin-top:4px;text-align:center;&quot;&gt;&lt;b&gt;Animation&lt;/b&gt;&lt;/p&gt;&lt;hr size=&quot;1&quot;/&gt;&lt;p style=&quot;margin:0 0 0 4px;line-height:1.6;&quot;&gt;- repeatCount: int&lt;br/&gt;- entity: Animated&lt;/p&gt;&lt;hr size=&quot;1&quot;/&gt;&lt;p style=&quot;margin:0 0 0 4px;line-height:1.6;&quot;&gt;+ executeAction(EventScheduler): void&lt;/p&gt;" style="verticalAlign=top;align=left;overflow=fill;fontSize=14;fontFamily=Helvetica;html=1;rounded=0;shadow=0;comic=0;labelBackgroundColor=none;strokeWidth=1;">
      <mxGeometry x="1817" y="1410" width="271" height="107" as="geometry" />
    </mxCell>
    <mxCell id="node16" parent="1" vertex="1" value="&lt;p style=&quot;margin:0px;margin-top:4px;text-align:center;&quot;&gt;&lt;b&gt;Background&lt;/b&gt;&lt;/p&gt;&lt;hr size=&quot;1&quot;/&gt;&lt;p style=&quot;margin:0 0 0 4px;line-height:1.6;&quot;&gt;- id: String&lt;br/&gt;- images: List&amp;lt;PImage&amp;gt;&lt;br/&gt;- imageIndex: int&lt;/p&gt;&lt;hr size=&quot;1&quot;/&gt;&lt;p style=&quot;margin:0 0 0 4px;line-height:1.6;&quot;&gt;+ getCurrentImage(): PImage&lt;/p&gt;" style="verticalAlign=top;align=left;overflow=fill;fontSize=14;fontFamily=Helvetica;html=1;rounded=0;shadow=0;comic=0;labelBackgroundColor=none;strokeWidth=1;">
      <mxGeometry x="827" y="2254" width="212" height="131" as="geometry" />
    </mxCell>
    <mxCell id="node6" parent="1" vertex="1" value="&lt;p style=&quot;margin:0px;margin-top:4px;text-align:center;&quot;&gt;&lt;b&gt;Dude&lt;/b&gt;&lt;/p&gt;&lt;hr size=&quot;1&quot;/&gt;&lt;p style=&quot;margin:0 0 0 4px;line-height:1.6;&quot;&gt;- resourceLimit: int&lt;/p&gt;&lt;hr size=&quot;1&quot;/&gt;&lt;p style=&quot;margin:0 0 0 4px;line-height:1.6;&quot;&gt;+ nextPosition(WorldModel, Point): Point&lt;br/&gt;+ getResourceLimit(): int&lt;/p&gt;" style="verticalAlign=top;align=left;overflow=fill;fontSize=14;fontFamily=Helvetica;html=1;rounded=0;shadow=0;comic=0;labelBackgroundColor=none;strokeWidth=1;">
      <mxGeometry x="1590" y="719" width="279" height="107" as="geometry" />
    </mxCell>
    <mxCell id="node8" parent="1" vertex="1" value="&lt;p style=&quot;margin:0px;margin-top:4px;text-align:center;&quot;&gt;&lt;b&gt;DudeFull&lt;/b&gt;&lt;/p&gt;&lt;hr size=&quot;1&quot;/&gt;&lt;p style=&quot;margin:0 0 0 4px;line-height:1.6;&quot;&gt;+ moveTo(WorldModel, Entity, EventScheduler): boolean&lt;br/&gt;+ executeActivity(WorldModel, ImageStore, EventScheduler): void&lt;br/&gt;- transformFull(WorldModel, EventScheduler, ImageStore): void&lt;/p&gt;" style="verticalAlign=top;align=left;overflow=fill;fontSize=14;fontFamily=Helvetica;html=1;rounded=0;shadow=0;comic=0;labelBackgroundColor=none;strokeWidth=1;">
      <mxGeometry x="1661" y="968" width="433" height="105" as="geometry" />
    </mxCell>
    <mxCell id="node23" parent="1" vertex="1" value="&lt;p style=&quot;margin:0px;margin-top:4px;text-align:center;&quot;&gt;&lt;b&gt;DudeNotFull&lt;/b&gt;&lt;/p&gt;&lt;hr size=&quot;1&quot;/&gt;&lt;p style=&quot;margin:0 0 0 4px;line-height:1.6;&quot;&gt;- resourceCount: int&lt;/p&gt;&lt;hr size=&quot;1&quot;/&gt;&lt;p style=&quot;margin:0 0 0 4px;line-height:1.6;&quot;&gt;+ executeActivity(WorldModel, ImageStore, EventScheduler): void&lt;br/&gt;+ transformNotFull(WorldModel, EventScheduler, ImageStore): boolean&lt;br/&gt;+ moveTo(WorldModel, Entity, EventScheduler): boolean&lt;/p&gt;" style="verticalAlign=top;align=left;overflow=fill;fontSize=14;fontFamily=Helvetica;html=1;rounded=0;shadow=0;comic=0;labelBackgroundColor=none;strokeWidth=1;">
      <mxGeometry x="1176" y="956" width="465" height="131" as="geometry" />
    </mxCell>
    <mxCell id="node22" parent="1" vertex="1" value="&lt;p style=&quot;margin:0px;margin-top:4px;text-align:center;&quot;&gt;&lt;b&gt;Entity&lt;/b&gt;&lt;/p&gt;&lt;hr size=&quot;1&quot;/&gt;&lt;p style=&quot;margin:0 0 0 4px;line-height:1.6;&quot;&gt;- position: Point&lt;br/&gt;- images: List&amp;lt;PImage&amp;gt;&lt;br/&gt;- imageIndex: int&lt;br/&gt;- id: String&lt;/p&gt;&lt;hr size=&quot;1&quot;/&gt;&lt;p style=&quot;margin:0 0 0 4px;line-height:1.6;&quot;&gt;+ setPosition(Point): void&lt;br/&gt;+ getCurrentImage(): PImage&lt;br/&gt;+ getImageIndex(): int&lt;br/&gt;+ getId(): String&lt;br/&gt;+ getImages(): List&amp;lt;PImage&amp;gt;&lt;br/&gt;+ setImageIndex(int): void&lt;br/&gt;+ getPosition(): Point&lt;/p&gt;" style="verticalAlign=top;align=left;overflow=fill;fontSize=14;fontFamily=Helvetica;html=1;rounded=0;shadow=0;comic=0;labelBackgroundColor=none;strokeWidth=1;">
      <mxGeometry x="1612" y="-14" width="212" height="275" as="geometry" />
    </mxCell>
    <mxCell id="node9" parent="1" vertex="1" value="&lt;p style=&quot;margin:0px;margin-top:4px;text-align:center;&quot;&gt;&lt;b&gt;Event&lt;/b&gt;&lt;/p&gt;&lt;hr size=&quot;1&quot;/&gt;&lt;p style=&quot;margin:0 0 0 4px;line-height:1.6;&quot;&gt;- action: Action&lt;br/&gt;- time: long&lt;br/&gt;- entity: Entity&lt;/p&gt;&lt;hr size=&quot;1&quot;/&gt;&lt;p style=&quot;margin:0 0 0 4px;line-height:1.6;&quot;&gt;+ getAction(): Action&lt;br/&gt;+ getEntity(): Entity&lt;br/&gt;+ getTime(): long&lt;/p&gt;" style="verticalAlign=top;align=left;overflow=fill;fontSize=14;fontFamily=Helvetica;html=1;rounded=0;shadow=0;comic=0;labelBackgroundColor=none;strokeWidth=1;">
      <mxGeometry x="621" y="2254" width="161" height="165" as="geometry" />
    </mxCell>
    <mxCell id="node19" parent="1" vertex="1" value="&lt;p style=&quot;margin:0px;margin-top:4px;text-align:center;&quot;&gt;&lt;b&gt;EventComparator&lt;/b&gt;&lt;/p&gt;&lt;hr size=&quot;1&quot;/&gt;&lt;p style=&quot;margin:0 0 0 4px;line-height:1.6;&quot;&gt;+ compare(Event, Event): int&lt;/p&gt;" style="verticalAlign=top;align=left;overflow=fill;fontSize=14;fontFamily=Helvetica;html=1;rounded=0;shadow=0;comic=0;labelBackgroundColor=none;strokeWidth=1;">
      <mxGeometry x="1084" y="2254" width="207" height="57" as="geometry" />
    </mxCell>
    <mxCell id="node27" parent="1" vertex="1" value="&lt;p style=&quot;margin:0px;margin-top:4px;text-align:center;&quot;&gt;&lt;b&gt;EventScheduler&lt;/b&gt;&lt;/p&gt;&lt;hr size=&quot;1&quot;/&gt;&lt;p style=&quot;margin:0 0 0 4px;line-height:1.6;&quot;&gt;- timeScale: double&lt;br/&gt;- pendingEvents: Map&amp;lt;Entity, List&amp;lt;Event&amp;gt;&amp;gt;&lt;br/&gt;- eventQueue: PriorityQueue&amp;lt;Event&amp;gt;&lt;/p&gt;&lt;hr size=&quot;1&quot;/&gt;&lt;p style=&quot;margin:0 0 0 4px;line-height:1.6;&quot;&gt;+ unscheduleAllEvents(Entity): void&lt;br/&gt;+ scheduleEvent(Entity, Action, long): void&lt;br/&gt;+ updateOnTime(long): void&lt;br/&gt;- removePendingEvent(Event): void&lt;/p&gt;" style="verticalAlign=top;align=left;overflow=fill;fontSize=14;fontFamily=Helvetica;html=1;rounded=0;shadow=0;comic=0;labelBackgroundColor=none;strokeWidth=1;">
      <mxGeometry x="275" y="2254" width="301" height="187" as="geometry" />
    </mxCell>
    <mxCell id="node1" parent="1" vertex="1" value="&lt;p style=&quot;margin:0px;margin-top:4px;text-align:center;&quot;&gt;&lt;b&gt;Fairy&lt;/b&gt;&lt;/p&gt;&lt;hr size=&quot;1&quot;/&gt;&lt;p style=&quot;margin:0 0 0 4px;line-height:1.6;&quot;&gt;+ SAPLING_HEALTH_LIMIT: int&lt;br/&gt;+ SAPLING_ACTION_ANIMATION_PERIOD: int&lt;/p&gt;&lt;hr size=&quot;1&quot;/&gt;&lt;p style=&quot;margin:0 0 0 4px;line-height:1.6;&quot;&gt;+ executeActivity(WorldModel, ImageStore, EventScheduler): void&lt;br/&gt;+ nextPosition(WorldModel, Point): Point&lt;br/&gt;+ moveTo(WorldModel, Entity, EventScheduler): boolean&lt;/p&gt;" style="verticalAlign=top;align=left;overflow=fill;fontSize=14;fontFamily=Helvetica;html=1;rounded=0;shadow=0;comic=0;labelBackgroundColor=none;strokeWidth=1;">
      <mxGeometry x="1889" y="697" width="433" height="143" as="geometry" />
    </mxCell>
    <mxCell id="node13" parent="1" vertex="1" value="&lt;p style=&quot;margin:0px;margin-top:4px;text-align:center;&quot;&gt;&lt;b&gt;Functions&lt;/b&gt;&lt;/p&gt;&lt;hr size=&quot;1&quot;/&gt;&lt;p style=&quot;margin:0 0 0 4px;line-height:1.6;&quot;&gt;+ PATH_KEYS: List&amp;lt;String&amp;gt;&lt;/p&gt;" style="verticalAlign=top;align=left;overflow=fill;fontSize=14;fontFamily=Helvetica;html=1;rounded=0;shadow=0;comic=0;labelBackgroundColor=none;strokeWidth=1;">
      <mxGeometry x="1336" y="2254" width="204" height="57" as="geometry" />
    </mxCell>
    <mxCell id="node4" parent="1" vertex="1" value="&lt;p style=&quot;margin:0px;margin-top:4px;text-align:center;&quot;&gt;&lt;b&gt;House&lt;/b&gt;&lt;/p&gt;&lt;hr size=&quot;1&quot;/&gt;" style="verticalAlign=top;align=left;overflow=fill;fontSize=14;fontFamily=Helvetica;html=1;rounded=0;shadow=0;comic=0;labelBackgroundColor=none;strokeWidth=1;">
      <mxGeometry x="1610" y="369" width="98" height="30" as="geometry" />
    </mxCell>
    <mxCell id="node21" parent="1" vertex="1" value="&lt;p style=&quot;margin:0px;margin-top:4px;text-align:center;&quot;&gt;&lt;b&gt;ImageStore&lt;/b&gt;&lt;/p&gt;&lt;hr size=&quot;1&quot;/&gt;&lt;p style=&quot;margin:0 0 0 4px;line-height:1.6;&quot;&gt;- KEYED_RED_IDX: int&lt;br/&gt;- defaultImages: List&amp;lt;PImage&amp;gt;&lt;br/&gt;+ KEYED_IMAGE_MIN: int&lt;br/&gt;- KEYED_GREEN_IDX: int&lt;br/&gt;- KEYED_BLUE_IDX: int&lt;br/&gt;- images: Map&amp;lt;String, List&amp;lt;PImage&amp;gt;&amp;gt;&lt;br/&gt;+ rand: Random&lt;br/&gt;+ COLOR_MASK: int&lt;/p&gt;&lt;hr size=&quot;1&quot;/&gt;&lt;p style=&quot;margin:0 0 0 4px;line-height:1.6;&quot;&gt;- getImages(Map&amp;lt;String, List&amp;lt;PImage&amp;gt;&amp;gt;, String): List&amp;lt;PImage&amp;gt;&lt;br/&gt;+ processImageLine(Map&amp;lt;String, List&amp;lt;PImage&amp;gt;&amp;gt;, String, PApplet): void&lt;br/&gt;- setAlpha(PImage, int, int): void&lt;br/&gt;+ loadImages(Scanner, PApplet): void&lt;br/&gt;+ getImageList(String): List&amp;lt;PImage&amp;gt;&lt;/p&gt;" style="verticalAlign=top;align=left;overflow=fill;fontSize=14;fontFamily=Helvetica;html=1;rounded=0;shadow=0;comic=0;labelBackgroundColor=none;strokeWidth=1;">
      <mxGeometry x="788" y="1296" width="468" height="319" as="geometry" />
    </mxCell>
    <mxCell id="node7" parent="1" vertex="1" value="&lt;p style=&quot;margin:0px;margin-top:4px;text-align:center;&quot;&gt;&lt;i&gt;&amp;lt;&amp;lt;interface&amp;gt;&amp;gt;&lt;/i&gt;&lt;br/&gt;&lt;b&gt;Moveable&lt;/b&gt;&lt;/p&gt;&lt;hr size=&quot;1&quot;/&gt;&lt;p style=&quot;margin:0 0 0 4px;line-height:1.6;&quot;&gt;+ moveTo(WorldModel, Entity, EventScheduler): boolean&lt;br/&gt;+ nextPosition(WorldModel, Point): Point&lt;/p&gt;" style="verticalAlign=top;align=left;overflow=fill;fontSize=14;fontFamily=Helvetica;html=1;rounded=0;shadow=0;comic=0;labelBackgroundColor=none;strokeWidth=1;">
      <mxGeometry x="1994" y="538" width="374" height="94" as="geometry" />
    </mxCell>
    <mxCell id="node5" parent="1" vertex="1" value="&lt;p style=&quot;margin:0px;margin-top:4px;text-align:center;&quot;&gt;&lt;b&gt;Obstacle&lt;/b&gt;&lt;/p&gt;&lt;hr size=&quot;1&quot;/&gt;&lt;p style=&quot;margin:0 0 0 4px;line-height:1.6;&quot;&gt;+ scheduleActions(EventScheduler, WorldModel, ImageStore): void&lt;/p&gt;" style="verticalAlign=top;align=left;overflow=fill;fontSize=14;fontFamily=Helvetica;html=1;rounded=0;shadow=0;comic=0;labelBackgroundColor=none;strokeWidth=1;">
      <mxGeometry x="1310" y="549" width="441" height="57" as="geometry" />
    </mxCell>
    <mxCell id="node11" parent="1" vertex="1" value="&lt;p style=&quot;margin:0px;margin-top:4px;text-align:center;&quot;&gt;&lt;b&gt;Parse&lt;/b&gt;&lt;/p&gt;&lt;hr size=&quot;1&quot;/&gt;&lt;p style=&quot;margin:0 0 0 4px;line-height:1.6;&quot;&gt;+ SAPLING_ROW: int&lt;br/&gt;+ OBSTACLE_COL: int&lt;br/&gt;+ FAIRY_ID: int&lt;br/&gt;+ TREE_ROW: int&lt;br/&gt;+ TREE_ACTION_PERIOD: int&lt;br/&gt;+ TREE_HEALTH: int&lt;br/&gt;+ SAPLING_COL: int&lt;br/&gt;+ SAPLING_ID: int&lt;br/&gt;+ TREE_ANIMATION_PERIOD: int&lt;br/&gt;+ DUDE_COL: int&lt;br/&gt;+ BGND_COL: int&lt;br/&gt;+ DUDE_LIMIT: int&lt;br/&gt;+ FAIRY_COL: int&lt;br/&gt;+ OBSTACLE_KEY: String&lt;br/&gt;+ HOUSE_ROW: int&lt;br/&gt;+ FAIRY_NUM_PROPERTIES: int&lt;br/&gt;+ HOUSE_COL: int&lt;br/&gt;+ FAIRY_ROW: int&lt;br/&gt;~ imageStore: ImageStore&lt;br/&gt;+ BGND_ID: int&lt;br/&gt;~ properties: String[]&lt;br/&gt;+ SAPLING_HEALTH: int&lt;br/&gt;+ TREE_ID: int&lt;br/&gt;+ OBSTACLE_NUM_PROPERTIES: int&lt;br/&gt;+ HOUSE_NUM_PROPERTIES: int&lt;br/&gt;+ BGND_NUM_PROPERTIES: int&lt;br/&gt;+ SAPLING_ACTION_ANIMATION_PERIOD: int&lt;br/&gt;+ FAIRY_ANIMATION_PERIOD: int&lt;br/&gt;+ SAPLING_HEALTH_LIMIT: int&lt;br/&gt;+ FAIRY_ACTION_PERIOD: int&lt;br/&gt;+ DUDE_ANIMATION_PERIOD: int&lt;br/&gt;+ OBSTACLE_ID: int&lt;br/&gt;+ OBSTACLE_ANIMATION_PERIOD: int&lt;br/&gt;+ TREE_KEY: String&lt;br/&gt;+ DUDE_ROW: int&lt;br/&gt;+ BGND_ROW: int&lt;br/&gt;+ FAIRY_KEY: String&lt;br/&gt;+ DUDE_KEY: String&lt;br/&gt;+ OBSTACLE_ROW: int&lt;br/&gt;+ SAPLING_KEY: String&lt;br/&gt;+ SAPLING_NUM_PROPERTIES: int&lt;br/&gt;~ world: WorldModel&lt;br/&gt;+ HOUSE_KEY: String&lt;br/&gt;+ DUDE_ID: int&lt;br/&gt;+ TREE_COL: int&lt;br/&gt;+ DUDE_NUM_PROPERTIES: int&lt;br/&gt;+ HOUSE_ID: int&lt;br/&gt;+ DUDE_ACTION_PERIOD: int&lt;br/&gt;+ TREE_NUM_PROPERTIES: int&lt;/p&gt;&lt;hr size=&quot;1&quot;/&gt;&lt;p style=&quot;margin:0 0 0 4px;line-height:1.6;&quot;&gt;+ parseHouse(): boolean&lt;br/&gt;+ parseFairy(): boolean&lt;br/&gt;+ parseSapling(): boolean&lt;br/&gt;+ parseBackground(): boolean&lt;br/&gt;+ parseDude(): boolean&lt;br/&gt;+ parseTree(): boolean&lt;br/&gt;+ parseObstacle(): boolean&lt;/p&gt;" style="verticalAlign=top;align=left;overflow=fill;fontSize=14;fontFamily=Helvetica;html=1;rounded=0;shadow=0;comic=0;labelBackgroundColor=none;strokeWidth=1;">
      <mxGeometry x="-90" y="-14" width="315" height="1265" as="geometry" />
    </mxCell>
    <mxCell id="node25" parent="1" vertex="1" value="&lt;p style=&quot;margin:0px;margin-top:4px;text-align:center;&quot;&gt;&lt;b&gt;Plant&lt;/b&gt;&lt;/p&gt;&lt;hr size=&quot;1&quot;/&gt;&lt;p style=&quot;margin:0 0 0 4px;line-height:1.6;&quot;&gt;+ STUMP_KEY: String&lt;br/&gt;- health: int&lt;/p&gt;&lt;hr size=&quot;1&quot;/&gt;&lt;p style=&quot;margin:0 0 0 4px;line-height:1.6;&quot;&gt;+ getHealth(): int&lt;br/&gt;+ updateHealth(int): void&lt;br/&gt;~ transform(WorldModel, EventScheduler, ImageStore): boolean&lt;/p&gt;" style="verticalAlign=top;align=left;overflow=fill;fontSize=14;fontFamily=Helvetica;html=1;rounded=0;shadow=0;comic=0;labelBackgroundColor=none;strokeWidth=1;">
      <mxGeometry x="589" y="697" width="422" height="143" as="geometry" />
    </mxCell>
    <mxCell id="node15" parent="1" vertex="1" value="&lt;p style=&quot;margin:0px;margin-top:4px;text-align:center;&quot;&gt;&lt;b&gt;Point&lt;/b&gt;&lt;/p&gt;&lt;hr size=&quot;1&quot;/&gt;&lt;p style=&quot;margin:0 0 0 4px;line-height:1.6;&quot;&gt;+ y: int&lt;br/&gt;+ x: int&lt;/p&gt;&lt;hr size=&quot;1&quot;/&gt;&lt;p style=&quot;margin:0 0 0 4px;line-height:1.6;&quot;&gt;+ nearestEntity(List&amp;lt;Entity&amp;gt;): Optional&amp;lt;Entity&amp;gt;&lt;br/&gt;+ adjacent(Point): boolean&lt;br/&gt;+ equals(Object): boolean&lt;br/&gt;+ toString(): String&lt;br/&gt;- distanceSquared(Point): int&lt;br/&gt;+ hashCode(): int&lt;/p&gt;" style="verticalAlign=top;align=left;overflow=fill;fontSize=14;fontFamily=Helvetica;html=1;rounded=0;shadow=0;comic=0;labelBackgroundColor=none;strokeWidth=1;">
      <mxGeometry x="-90" y="2254" width="320" height="209" as="geometry" />
    </mxCell>
    <mxCell id="node0" parent="1" vertex="1" value="&lt;p style=&quot;margin:0px;margin-top:4px;text-align:center;&quot;&gt;&lt;b&gt;Sapling&lt;/b&gt;&lt;/p&gt;&lt;hr size=&quot;1&quot;/&gt;&lt;p style=&quot;margin:0 0 0 4px;line-height:1.6;&quot;&gt;+ TREE_ANIMATION_MIN: int&lt;br/&gt;+ TREE_ACTION_MIN: int&lt;br/&gt;+ TREE_ACTION_MAX: int&lt;br/&gt;+ TREE_ANIMATION_MAX: int&lt;br/&gt;+ TREE_HEALTH_MAX: int&lt;br/&gt;+ TREE_HEALTH_MIN: int&lt;br/&gt;- healthLimit: int&lt;/p&gt;&lt;hr size=&quot;1&quot;/&gt;&lt;p style=&quot;margin:0 0 0 4px;line-height:1.6;&quot;&gt;- getNumFromRange(int, int): int&lt;br/&gt;+ transform(WorldModel, EventScheduler, ImageStore): boolean&lt;br/&gt;+ executeActivity(WorldModel, ImageStore, EventScheduler): void&lt;/p&gt;" style="verticalAlign=top;align=left;overflow=fill;fontSize=14;fontFamily=Helvetica;html=1;rounded=0;shadow=0;comic=0;labelBackgroundColor=none;strokeWidth=1;">
      <mxGeometry x="723" y="890" width="433" height="253" as="geometry" />
    </mxCell>
    <mxCell id="node12" parent="1" vertex="1" value="&lt;p style=&quot;margin:0px;margin-top:4px;text-align:center;&quot;&gt;&lt;b&gt;Stump&lt;/b&gt;&lt;/p&gt;&lt;hr size=&quot;1&quot;/&gt;" style="verticalAlign=top;align=left;overflow=fill;fontSize=14;fontFamily=Helvetica;html=1;rounded=0;shadow=0;comic=0;labelBackgroundColor=none;strokeWidth=1;">
      <mxGeometry x="1728" y="369" width="99" height="30" as="geometry" />
    </mxCell>
    <mxCell id="node2" parent="1" vertex="1" value="&lt;p style=&quot;margin:0px;margin-top:4px;text-align:center;&quot;&gt;&lt;b&gt;Tree&lt;/b&gt;&lt;/p&gt;&lt;hr size=&quot;1&quot;/&gt;&lt;p style=&quot;margin:0 0 0 4px;line-height:1.6;&quot;&gt;+ transform(WorldModel, EventScheduler, ImageStore): boolean&lt;br/&gt;+ executeActivity(WorldModel, ImageStore, EventScheduler): void&lt;/p&gt;" style="verticalAlign=top;align=left;overflow=fill;fontSize=14;fontFamily=Helvetica;html=1;rounded=0;shadow=0;comic=0;labelBackgroundColor=none;strokeWidth=1;">
      <mxGeometry x="270" y="979" width="433" height="81" as="geometry" />
    </mxCell>
    <mxCell id="node26" parent="1" vertex="1" value="&lt;p style=&quot;margin:0px;margin-top:4px;text-align:center;&quot;&gt;&lt;b&gt;Viewport&lt;/b&gt;&lt;/p&gt;&lt;hr size=&quot;1&quot;/&gt;&lt;p style=&quot;margin:0 0 0 4px;line-height:1.6;&quot;&gt;- numRows: int&lt;br/&gt;- numCols: int&lt;br/&gt;- col: int&lt;br/&gt;- row: int&lt;/p&gt;&lt;hr size=&quot;1&quot;/&gt;&lt;p style=&quot;margin:0 0 0 4px;line-height:1.6;&quot;&gt;+ shift(int, int): void&lt;br/&gt;+ getNumCols(): int&lt;br/&gt;+ viewportToWorld(int, int): Point&lt;br/&gt;+ contains(Point): boolean&lt;br/&gt;+ getNumRows(): int&lt;br/&gt;+ getRow(): int&lt;br/&gt;+ getCol(): int&lt;br/&gt;+ worldToViewport(int, int): Point&lt;/p&gt;" style="verticalAlign=top;align=left;overflow=fill;fontSize=14;fontFamily=Helvetica;html=1;rounded=0;shadow=0;comic=0;labelBackgroundColor=none;strokeWidth=1;">
      <mxGeometry x="1301" y="1296" width="233" height="297" as="geometry" />
    </mxCell>
    <mxCell id="node17" parent="1" vertex="1" value="&lt;p style=&quot;margin:0px;margin-top:4px;text-align:center;&quot;&gt;&lt;b&gt;VirtualWorld&lt;/b&gt;&lt;/p&gt;&lt;hr size=&quot;1&quot;/&gt;&lt;p style=&quot;margin:0 0 0 4px;line-height:1.6;&quot;&gt;+ TILE_WIDTH: int&lt;br/&gt;+ nextTime: long&lt;br/&gt;+ scheduler: EventScheduler&lt;br/&gt;+ TILE_HEIGHT: int&lt;br/&gt;+ WORLD_WIDTH_SCALE: int&lt;br/&gt;+ VIEW_ROWS: int&lt;br/&gt;+ LOAD_FILE_NAME: String&lt;br/&gt;+ world: WorldModel&lt;br/&gt;+ view: WorldView&lt;br/&gt;+ VIEW_WIDTH: int&lt;br/&gt;+ WORLD_COLS: int&lt;br/&gt;+ VIEW_HEIGHT: int&lt;br/&gt;+ timeScale: double&lt;br/&gt;+ IMAGE_LIST_FILE_NAME: String&lt;br/&gt;+ WORLD_HEIGHT_SCALE: int&lt;br/&gt;+ imageStore: ImageStore&lt;br/&gt;+ FAST_SCALE: double&lt;br/&gt;+ FASTEST_FLAG: String&lt;br/&gt;+ FAST_FLAG: String&lt;br/&gt;+ FASTER_SCALE: double&lt;br/&gt;+ TIMER_ACTION_PERIOD: int&lt;br/&gt;+ FASTEST_SCALE: double&lt;br/&gt;+ DEFAULT_IMAGE_NAME: String&lt;br/&gt;+ VIEW_COLS: int&lt;br/&gt;+ WORLD_ROWS: int&lt;br/&gt;+ FASTER_FLAG: String&lt;br/&gt;+ DEFAULT_IMAGE_COLOR: int&lt;/p&gt;&lt;hr size=&quot;1&quot;/&gt;&lt;p style=&quot;margin:0 0 0 4px;line-height:1.6;&quot;&gt;+ createDefaultBackground(ImageStore): Background&lt;br/&gt;+ settings(): void&lt;br/&gt;- mouseToPoint(int, int): Point&lt;br/&gt;+ draw(): void&lt;br/&gt;+ mousePressed(): void&lt;br/&gt;+ loadWorld(WorldModel, String, ImageStore): void&lt;br/&gt;+ keyPressed(): void&lt;br/&gt;+ main(String[]): void&lt;br/&gt;+ setup(): void&lt;br/&gt;+ createImageColored(int, int, int): PImage&lt;br/&gt;~ loadImages(String, ImageStore, PApplet): void&lt;br/&gt;+ scheduleActions(WorldModel, EventScheduler, ImageStore): void&lt;br/&gt;+ parseCommandLine(String[]): void&lt;/p&gt;" style="verticalAlign=top;align=left;overflow=fill;fontSize=14;fontFamily=Helvetica;html=1;rounded=0;shadow=0;comic=0;labelBackgroundColor=none;strokeWidth=1;">
      <mxGeometry x="-90" y="1296" width="441" height="913" as="geometry" />
    </mxCell>
    <mxCell id="node28" parent="1" vertex="1" value="&lt;p style=&quot;margin:0px;margin-top:4px;text-align:center;&quot;&gt;&lt;b&gt;WorldModel&lt;/b&gt;&lt;/p&gt;&lt;hr size=&quot;1&quot;/&gt;&lt;p style=&quot;margin:0 0 0 4px;line-height:1.6;&quot;&gt;- occupancy: Entity[][]&lt;br/&gt;- numCols: int&lt;br/&gt;+ SAPLING_KEY: String&lt;br/&gt;+ DUDE_KEY: String&lt;br/&gt;+ OBSTACLE_KEY: String&lt;br/&gt;+ FAIRY_KEY: String&lt;br/&gt;+ HOUSE_KEY: String&lt;br/&gt;- numRows: int&lt;br/&gt;+ PROPERTY_KEY: int&lt;br/&gt;+ TREE_KEY: String&lt;br/&gt;- background: Background[][]&lt;br/&gt;- entities: Set&amp;lt;Entity&amp;gt;&lt;br/&gt;+ BGND_KEY: String&lt;/p&gt;&lt;hr size=&quot;1&quot;/&gt;&lt;p style=&quot;margin:0 0 0 4px;line-height:1.6;&quot;&gt;+ getNumRows(): int&lt;br/&gt;- getBackgroundCell(Point): Background&lt;br/&gt;- withinBounds(Point): boolean&lt;br/&gt;+ setBackground(Point, Background): void&lt;br/&gt;+ getEntities(): Set&amp;lt;Entity&amp;gt;&lt;br/&gt;+ getOccupant(Point): Optional&amp;lt;Entity&amp;gt;&lt;br/&gt;- setOccupancyCell(Point, Entity): void&lt;br/&gt;+ isOccupied(Point): boolean&lt;br/&gt;+ moveEntity(Entity, Point): void&lt;br/&gt;- removeEntityAt(Point): void&lt;br/&gt;+ addEntity(Entity): void&lt;br/&gt;+ removeEntity(Entity): void&lt;br/&gt;- setBackgroundCell(Point, Background): void&lt;br/&gt;+ getBackgroundImage(Point): Optional&amp;lt;PImage&amp;gt;&lt;br/&gt;+ getNumCols(): int&lt;br/&gt;- processLine(String, ImageStore): boolean&lt;br/&gt;+ load(Scanner, ImageStore): void&lt;br/&gt;+ tryAddEntity(Entity): void&lt;br/&gt;+ getOccupancyCell(Point): Entity&lt;br/&gt;+ findNearest(Point, List&amp;lt;Class&amp;gt;): Optional&amp;lt;Entity&amp;gt;&lt;/p&gt;" style="verticalAlign=top;align=left;overflow=fill;fontSize=14;fontFamily=Helvetica;html=1;rounded=0;shadow=0;comic=0;labelBackgroundColor=none;strokeWidth=1;">
      <mxGeometry x="396" y="1296" width="347" height="759" as="geometry" />
    </mxCell>
    <mxCell id="node18" parent="1" vertex="1" value="&lt;p style=&quot;margin:0px;margin-top:4px;text-align:center;&quot;&gt;&lt;b&gt;WorldView&lt;/b&gt;&lt;/p&gt;&lt;hr size=&quot;1&quot;/&gt;&lt;p style=&quot;margin:0 0 0 4px;line-height:1.6;&quot;&gt;- world: WorldModel&lt;br/&gt;- tileWidth: int&lt;br/&gt;- screen: PApplet&lt;br/&gt;- viewport: Viewport&lt;br/&gt;- tileHeight: int&lt;/p&gt;&lt;hr size=&quot;1&quot;/&gt;&lt;p style=&quot;margin:0 0 0 4px;line-height:1.6;&quot;&gt;- drawBackground(): void&lt;br/&gt;+ shiftView(int, int): void&lt;br/&gt;+ drawViewport(): void&lt;br/&gt;- clamp(int, int, int): int&lt;br/&gt;+ getViewport(): Viewport&lt;br/&gt;- drawEntities(): void&lt;/p&gt;" style="verticalAlign=top;align=left;overflow=fill;fontSize=14;fontFamily=Helvetica;html=1;rounded=0;shadow=0;comic=0;labelBackgroundColor=none;strokeWidth=1;">
      <mxGeometry x="1579" y="1296" width="193" height="275" as="geometry" />
    </mxCell>
    <mxCell id="edge15" edge="1" value="" parent="1" source="node20" target="node3" style="html=1;rounded=1;edgeStyle=orthogonalEdgeStyle;dashed=0;startArrow=none;endArrow=block;endSize=12;strokeColor=#589df6;exitX=0.500;exitY=0.000;exitDx=0;exitDy=0;entryX=0.500;entryY=1.000;entryDx=0;entryDy=0;">
      <mxGeometry width="50" height="50" relative="1" as="geometry">
        <Array as="points">
          <mxPoint x="1069" y="479" />
          <mxPoint x="1370" y="479" />
        </Array>
      </mxGeometry>
    </mxCell>
    <mxCell id="edge1" edge="1" value="" parent="1" source="node10" target="node24" style="html=1;rounded=1;edgeStyle=orthogonalEdgeStyle;dashed=1;startArrow=none;endArrow=block;endSize=12;strokeColor=#609350;exitX=0.500;exitY=0.000;exitDx=0;exitDy=0;entryX=0.500;entryY=1.001;entryDx=0;entryDy=0;">
      <mxGeometry width="50" height="50" relative="1" as="geometry">
        <Array as="points">
          <mxPoint x="2244" y="1374" />
          <mxPoint x="2098" y="1374" />
        </Array>
      </mxGeometry>
    </mxCell>
    <mxCell id="edge13" edge="1" value="" parent="1" source="node3" target="node22" style="html=1;rounded=1;edgeStyle=orthogonalEdgeStyle;dashed=0;startArrow=none;endArrow=block;endSize=12;strokeColor=#589df6;exitX=0.500;exitY=0.000;exitDx=0;exitDy=0;entryX=0.500;entryY=1.000;entryDx=0;entryDy=0;">
      <mxGeometry width="50" height="50" relative="1" as="geometry">
        <Array as="points">
          <mxPoint x="1370" y="286" />
          <mxPoint x="1718" y="286" />
        </Array>
      </mxGeometry>
    </mxCell>
    <mxCell id="edge12" edge="1" value="" parent="1" source="node14" target="node24" style="html=1;rounded=1;edgeStyle=orthogonalEdgeStyle;dashed=1;startArrow=none;endArrow=block;endSize=12;strokeColor=#609350;exitX=0.500;exitY=0.000;exitDx=0;exitDy=0;entryX=0.500;entryY=1.001;entryDx=0;entryDy=0;">
      <mxGeometry width="50" height="50" relative="1" as="geometry">
        <Array as="points">
          <mxPoint x="1953" y="1374" />
          <mxPoint x="2098" y="1374" />
        </Array>
      </mxGeometry>
    </mxCell>
    <mxCell id="edge5" edge="1" value="" parent="1" source="node6" target="node20" style="html=1;rounded=1;edgeStyle=orthogonalEdgeStyle;dashed=0;startArrow=none;endArrow=block;endSize=12;strokeColor=#589df6;exitX=0.250;exitY=0.000;exitDx=0;exitDy=0;entryX=0.500;entryY=1.000;entryDx=0;entryDy=0;">
      <mxGeometry width="50" height="50" relative="1" as="geometry">
        <Array as="points">
          <mxPoint x="1660" y="677" />
          <mxPoint x="1069" y="677" />
        </Array>
      </mxGeometry>
    </mxCell>
    <mxCell id="edge6" edge="1" value="" parent="1" source="node6" target="node7" style="html=1;rounded=1;edgeStyle=orthogonalEdgeStyle;dashed=1;startArrow=none;endArrow=block;endSize=12;strokeColor=#609350;exitX=0.750;exitY=0.000;exitDx=0;exitDy=0;entryX=0.500;entryY=1.000;entryDx=0;entryDy=0;">
      <mxGeometry width="50" height="50" relative="1" as="geometry">
        <Array as="points">
          <mxPoint x="1800" y="667" />
          <mxPoint x="2181" y="667" />
        </Array>
      </mxGeometry>
    </mxCell>
    <mxCell id="edge0" edge="1" value="" parent="1" source="node8" target="node6" style="html=1;rounded=1;edgeStyle=orthogonalEdgeStyle;dashed=0;startArrow=none;endArrow=block;endSize=12;strokeColor=#589df6;exitX=0.500;exitY=0.000;exitDx=0;exitDy=0;entryX=0.500;entryY=1.000;entryDx=0;entryDy=0;">
      <mxGeometry width="50" height="50" relative="1" as="geometry">
        <Array as="points">
          <mxPoint x="1878" y="865" />
          <mxPoint x="1730" y="865" />
        </Array>
      </mxGeometry>
    </mxCell>
    <mxCell id="edge2" edge="1" value="" parent="1" source="node23" target="node6" style="html=1;rounded=1;edgeStyle=orthogonalEdgeStyle;dashed=0;startArrow=none;endArrow=block;endSize=12;strokeColor=#589df6;exitX=0.500;exitY=0.000;exitDx=0;exitDy=0;entryX=0.500;entryY=1.000;entryDx=0;entryDy=0;">
      <mxGeometry width="50" height="50" relative="1" as="geometry">
        <Array as="points">
          <mxPoint x="1409" y="865" />
          <mxPoint x="1730" y="865" />
        </Array>
      </mxGeometry>
    </mxCell>
    <mxCell id="edge14" edge="1" value="" parent="1" source="node1" target="node20" style="html=1;rounded=1;edgeStyle=orthogonalEdgeStyle;dashed=0;startArrow=none;endArrow=block;endSize=12;strokeColor=#589df6;exitX=0.250;exitY=0.000;exitDx=0;exitDy=0;entryX=0.500;entryY=1.000;entryDx=0;entryDy=0;">
      <mxGeometry width="50" height="50" relative="1" as="geometry">
        <Array as="points">
          <mxPoint x="1998" y="677" />
          <mxPoint x="1069" y="677" />
        </Array>
      </mxGeometry>
    </mxCell>
    <mxCell id="edge11" edge="1" value="" parent="1" source="node1" target="node7" style="html=1;rounded=1;edgeStyle=orthogonalEdgeStyle;dashed=1;startArrow=none;endArrow=block;endSize=12;strokeColor=#609350;exitX=0.750;exitY=0.000;exitDx=0;exitDy=0;entryX=0.500;entryY=1.000;entryDx=0;entryDy=0;">
      <mxGeometry width="50" height="50" relative="1" as="geometry">
        <Array as="points">
          <mxPoint x="2214" y="667" />
          <mxPoint x="2181" y="667" />
        </Array>
      </mxGeometry>
    </mxCell>
    <mxCell id="edge10" edge="1" value="" parent="1" source="node4" target="node22" style="html=1;rounded=1;edgeStyle=orthogonalEdgeStyle;dashed=0;startArrow=none;endArrow=block;endSize=12;strokeColor=#589df6;exitX=0.500;exitY=0.001;exitDx=0;exitDy=0;entryX=0.500;entryY=1.000;entryDx=0;entryDy=0;">
      <mxGeometry width="50" height="50" relative="1" as="geometry">
        <Array as="points">
          <mxPoint x="1659" y="286" />
          <mxPoint x="1718" y="286" />
        </Array>
      </mxGeometry>
    </mxCell>
    <mxCell id="edge8" edge="1" value="" parent="1" source="node5" target="node3" style="html=1;rounded=1;edgeStyle=orthogonalEdgeStyle;dashed=0;startArrow=none;endArrow=block;endSize=12;strokeColor=#589df6;exitX=0.500;exitY=0.001;exitDx=0;exitDy=0;entryX=0.500;entryY=1.000;entryDx=0;entryDy=0;">
      <mxGeometry width="50" height="50" relative="1" as="geometry">
        <Array as="points">
          <mxPoint x="1530" y="479" />
          <mxPoint x="1370" y="479" />
        </Array>
      </mxGeometry>
    </mxCell>
    <mxCell id="edge3" edge="1" value="" parent="1" source="node25" target="node20" style="html=1;rounded=1;edgeStyle=orthogonalEdgeStyle;dashed=0;startArrow=none;endArrow=block;endSize=12;strokeColor=#589df6;exitX=0.500;exitY=0.000;exitDx=0;exitDy=0;entryX=0.500;entryY=1.000;entryDx=0;entryDy=0;">
      <mxGeometry width="50" height="50" relative="1" as="geometry">
        <Array as="points">
          <mxPoint x="800" y="677" />
          <mxPoint x="1069" y="677" />
        </Array>
      </mxGeometry>
    </mxCell>
    <mxCell id="edge7" edge="1" value="" parent="1" source="node0" target="node25" style="html=1;rounded=1;edgeStyle=orthogonalEdgeStyle;dashed=0;startArrow=none;endArrow=block;endSize=12;strokeColor=#589df6;exitX=0.500;exitY=0.000;exitDx=0;exitDy=0;entryX=0.500;entryY=1.000;entryDx=0;entryDy=0;">
      <mxGeometry width="50" height="50" relative="1" as="geometry">
        <Array as="points">
          <mxPoint x="940" y="865" />
          <mxPoint x="800" y="865" />
        </Array>
      </mxGeometry>
    </mxCell>
    <mxCell id="edge4" edge="1" value="" parent="1" source="node12" target="node22" style="html=1;rounded=1;edgeStyle=orthogonalEdgeStyle;dashed=0;startArrow=none;endArrow=block;endSize=12;strokeColor=#589df6;exitX=0.500;exitY=0.001;exitDx=0;exitDy=0;entryX=0.500;entryY=1.000;entryDx=0;entryDy=0;">
      <mxGeometry width="50" height="50" relative="1" as="geometry">
        <Array as="points">
          <mxPoint x="1778" y="286" />
          <mxPoint x="1718" y="286" />
        </Array>
      </mxGeometry>
    </mxCell>
    <mxCell id="edge9" edge="1" value="" parent="1" source="node2" target="node25" style="html=1;rounded=1;edgeStyle=orthogonalEdgeStyle;dashed=0;startArrow=none;endArrow=block;endSize=12;strokeColor=#589df6;exitX=0.500;exitY=0.000;exitDx=0;exitDy=0;entryX=0.500;entryY=1.000;entryDx=0;entryDy=0;">
      <mxGeometry width="50" height="50" relative="1" as="geometry">
        <Array as="points">
          <mxPoint x="487" y="865" />
          <mxPoint x="800" y="865" />
        </Array>
      </mxGeometry>
    </mxCell>
  </root>
</mxGraphModel>